{
    "asset" : {
        "generator" : "Khronos glTF Blender I/O v1.3.48",
        "version" : "2.0"
    },
    "scene" : 0,
    "scenes" : [
        {
            "name" : "Scene",
            "nodes" : [
                0,
                1,
                2,
                3
            ]
        }
    ],
    "nodes" : [
        {
            "mesh" : 0,
            "name" : "bell",
            "rotation" : [
                0.7071068286895752,
                0,
                0,
                0.7071067094802856
            ]
        },
        {
            "mesh" : 1,
            "name" : "tip_standard",
            "rotation" : [
                0.7071068286895752,
                0,
                0,
                0.7071067094802856
            ]
        },
        {
            "mesh" : 2,
            "name" : "tip_fat",
            "rotation" : [
                0.7071068286895752,
                0,
                0,
                0.7071067094802856
            ]
        },
        {
            "mesh" : 3,
            "name" : "tip_short",
            "rotation" : [
                0.7071068286895752,
                0,
                0,
                0.7071067094802856
            ]
        }
    ],
    "materials" : [
        {
            "doubleSided" : true,
            "emissiveFactor" : [
                0,
                0,
                0
            ],
            "name" : "bell_Mat",
            "normalTexture" : {
                "index" : 0,
                "texCoord" : 0
            },
            "pbrMetallicRoughness" : {
                "baseColorFactor" : [
                    0.4564111530780792,
                    0,
                    0,
                    1
                ],
                "metallicFactor" : 0,
                "metallicRoughnessTexture" : {
                    "index" : 1,
                    "texCoord" : 0
                }
            }
        },
        {
            "doubleSided" : true,
            "emissiveFactor" : [
                0,
                0,
                0
            ],
            "name" : "tip_Mat",
            "normalTexture" : {
                "index" : 2,
                "texCoord" : 0
            },
            "pbrMetallicRoughness" : {
                "baseColorTexture" : {
                    "index" : 3,
                    "texCoord" : 0
                },
                "metallicFactor" : 0,
                "metallicRoughnessTexture" : {
                    "index" : 4,
                    "texCoord" : 0
                }
            }
        }
    ],
    "meshes" : [
        {
            "name" : "bell",
            "primitives" : [
                {
                    "attributes" : {
                        "POSITION" : 0,
                        "NORMAL" : 1,
                        "TEXCOORD_0" : 2
                    },
                    "indices" : 3,
                    "material" : 0
                }
            ]
        },
        {
            "name" : "tip_standard",
            "primitives" : [
                {
                    "attributes" : {
                        "POSITION" : 4,
                        "NORMAL" : 5,
                        "TEXCOORD_0" : 6
                    },
                    "indices" : 7,
                    "material" : 1
                }
            ]
        },
        {
            "name" : "tip_fat",
            "primitives" : [
                {
                    "attributes" : {
                        "POSITION" : 8,
                        "NORMAL" : 9,
                        "TEXCOORD_0" : 10
                    },
                    "indices" : 7,
                    "material" : 1
                }
            ]
        },
        {
            "name" : "tip_short",
            "primitives" : [
                {
                    "attributes" : {
                        "POSITION" : 11,
                        "NORMAL" : 12,
                        "TEXCOORD_0" : 13
                    },
                    "indices" : 14,
                    "material" : 1
                }
            ]
        }
    ],
    "textures" : [
        {
            "source" : 0
        },
        {
            "source" : 1
        },
        {
            "source" : 0
        },
        {
            "source" : 2
        },
        {
            "source" : 1
        }
    ],
    "images" : [
        {
            "mimeType" : "image/png",
            "name" : "chili_pepper_Mat_normal",
            "uri" : "textures/chili_pepper_Mat_normal.png"
        },
        {
            "mimeType" : "image/png",
            "name" : "chili_pepper_Mat_roughness",
            "uri" : "textures/chili_pepper_Mat_roughness.png"
        },
        {
            "mimeType" : "image/png",
            "name" : "chili_pepper_Mat_baseColor",
            "uri" : "textures/chili_pepper_Mat_baseColor.png"
        }
    ],
    "accessors" : [
        {
            "bufferView" : 0,
            "componentType" : 5126,
            "count" : 861,
            "max" : [
                2.9256880283355713,
                2.4506380558013916,
                0
            ],
            "min" : [
                -2.9256880283355713,
                -2.450637102127075,
                -15.863216400146484
            ],
            "type" : "VEC3"
        },
        {
            "bufferView" : 1,
            "componentType" : 5126,
            "count" : 861,
            "type" : "VEC3"
        },
        {
            "bufferView" : 2,
            "componentType" : 5126,
            "count" : 861,
            "type" : "VEC2"
        },
        {
            "bufferView" : 3,
            "componentType" : 5123,
            "count" : 4416,
            "type" : "SCALAR"
        },
        {
            "bufferView" : 4,
            "componentType" : 5126,
            "count" : 1427,
            "max" : [
                1.9546070098876953,
                1.6027610301971436,
                -15.408864974975586
            ],
            "min" : [
                -1.5257689952850342,
                -1.5740220546722412,
                -20.425336837768555
            ],
            "type" : "VEC3"
        },
        {
            "bufferView" : 5,
            "componentType" : 5126,
            "count" : 1427,
            "type" : "VEC3"
        },
        {
            "bufferView" : 6,
            "componentType" : 5126,
            "count" : 1427,
            "type" : "VEC2"
        },
        {
            "bufferView" : 7,
            "componentType" : 5123,
            "count" : 7740,
            "type" : "SCALAR"
        },
        {
            "bufferView" : 8,
            "componentType" : 5126,
            "count" : 1427,
            "max" : [
                1.9546070098876953,
                1.6027610301971436,
                -15.408864974975586
            ],
            "min" : [
                -1.7574177980422974,
                -1.5740220546722412,
                -20.425336837768555
            ],
            "type" : "VEC3"
        },
        {
            "bufferView" : 9,
            "componentType" : 5126,
            "count" : 1427,
            "type" : "VEC3"
        },
        {
            "bufferView" : 10,
            "componentType" : 5126,
            "count" : 1427,
            "type" : "VEC2"
        },
        {
            "bufferView" : 11,
            "componentType" : 5126,
            "count" : 1037,
            "max" : [
                1.9546070098876953,
                1.6027610301971436,
                -15.408864974975586
            ],
            "min" : [
                -1.5257689952850342,
                -1.5740220546722412,
                -18.884380340576172
            ],
            "type" : "VEC3"
        },
        {
            "bufferView" : 12,
            "componentType" : 5126,
            "count" : 1037,
            "type" : "VEC3"
        },
        {
            "bufferView" : 13,
            "componentType" : 5126,
            "count" : 1037,
            "type" : "VEC2"
        },
        {
            "bufferView" : 14,
            "componentType" : 5123,
            "count" : 5676,
            "type" : "SCALAR"
        }
    ],
    "bufferViews" : [
        {
            "buffer" : 0,
            "byteLength" : 10332,
            "byteOffset" : 0
        },
        {
            "buffer" : 0,
            "byteLength" : 10332,
            "byteOffset" : 10332
        },
        {
            "buffer" : 0,
            "byteLength" : 6888,
            "byteOffset" : 20664
        },
        {
            "buffer" : 0,
            "byteLength" : 8832,
            "byteOffset" : 27552
        },
        {
            "buffer" : 0,
            "byteLength" : 17124,
            "byteOffset" : 36384
        },
        {
            "buffer" : 0,
            "byteLength" : 17124,
            "byteOffset" : 53508
        },
        {
            "buffer" : 0,
            "byteLength" : 11416,
            "byteOffset" : 70632
        },
        {
            "buffer" : 0,
            "byteLength" : 15480,
            "byteOffset" : 82048
        },
        {
            "buffer" : 0,
            "byteLength" : 17124,
            "byteOffset" : 97528
        },
        {
            "buffer" : 0,
            "byteLength" : 17124,
            "byteOffset" : 114652
        },
        {
            "buffer" : 0,
            "byteLength" : 11416,
            "byteOffset" : 131776
        },
        {
            "buffer" : 0,
            "byteLength" : 12444,
            "byteOffset" : 143192
        },
        {
            "buffer" : 0,
            "byteLength" : 12444,
            "byteOffset" : 155636
        },
        {
            "buffer" : 0,
            "byteLength" : 8296,
            "byteOffset" : 168080
        },
        {
            "buffer" : 0,
            "byteLength" : 11352,
            "byteOffset" : 176376
        }
    ],
    "buffers" : [
        {
            "byteLength" : 187728,
            "uri" : "chilli.bin"
        }
    ]
}
