<svg xmlns="http://www.w3.org/2000/svg" width="24" height="24" viewBox="0 0 24 24">
  <path d="M10.387,2a2.1,2.1,0,0,0-2.1,2.1V9.358a2.1,2.1,0,0,0,2.1,2.1h7.358a2.1,2.1,0,0,0,2.1-2.1V4.1a2.1,2.1,0,0,0-2.1-2.1Zm2.1,2.1h3.153a1.051,1.051,0,0,1,0,2.1H12.49a1.051,1.051,0,0,1,0-2.1Zm9.024,8.409a1.482,1.482,0,0,0-1.051.435l-4.82,4.82h-4.2a.526.526,0,1,1,0-1.051h2.1a2.1,2.1,0,0,0,2.1-2.1,1.051,1.051,0,0,0-1.051-1.051H8.975A4.2,4.2,0,0,0,6,14.794L2.722,18.074a1.05,1.05,0,0,0,0,1.486L5.44,22.278a1.05,1.05,0,0,0,1.486,0l1.359-1.359h7.538A2.1,2.1,0,0,0,17.31,20.3l5.255-5.255a1.486,1.486,0,0,0-1.051-2.537Z" transform="translate(-0.914 -0.5)" fill="currentColor"/>
</svg>
