<?xml version="1.0" encoding="utf-8"?>
<!-- Generator: Adobe Illustrator 22.1.0, SVG Export Plug-In . SVG Version: 6.00 Build 0)  -->
<svg version="1.1" id="Layer_1" xmlns="http://www.w3.org/2000/svg" xmlns:xlink="http://www.w3.org/1999/xlink" x="0px" y="0px"
	 viewBox="0 0 100 40" style="enable-background:new 0 0 100 40;" xml:space="preserve">
<style type="text/css">
	.st0{fill:#84221D;}
	.st1{fill:#BC221D;}
	.st2{fill:#88221D;}
	.st3{fill:#A3221D;}
	.st4{fill:#E93335;}
	.st5{fill:#6C221D;}
	.st6{fill:#316F2D;}
	.st7{fill:#31902D;}
</style>
<g>
	<path d="M2.8,27.7c-0.9-0.4-1.6-0.9-2.1-1.6C0.2,25.4,0,24.6,0,23.6v-0.5c0-0.2,0.1-0.4,0.4-0.4h1.9c0.2,0,0.4,0.1,0.4,0.3v0.4
		c0,0.7,0.3,1.3,0.9,1.8C4.2,25.7,5,26,6.1,26c0.9,0,1.7-0.2,2.1-0.6c0.5-0.4,0.7-0.9,0.7-1.6c0-0.4-0.1-0.8-0.4-1.1
		c-0.3-0.3-0.6-0.6-1.1-0.8c-0.5-0.2-1.2-0.6-2.2-0.9c-1.1-0.4-2-0.8-2.7-1.1c-0.7-0.4-1.2-0.8-1.7-1.4c-0.5-0.6-0.7-1.4-0.7-2.3
		c0-1.4,0.5-2.4,1.5-3.2c1-0.8,2.3-1.2,4-1.2c1.2,0,2.2,0.2,3.1,0.6c0.9,0.4,1.6,1,2.1,1.7c0.5,0.7,0.7,1.5,0.7,2.5v0.3
		c0,0.2-0.1,0.4-0.4,0.4H9.2c-0.1,0-0.2,0-0.3-0.1c-0.1-0.1-0.1-0.1-0.1-0.2v-0.3c0-0.7-0.3-1.3-0.9-1.8C7.4,14.3,6.5,14,5.5,14
		c-0.9,0-1.5,0.2-2,0.5c-0.5,0.4-0.7,0.9-0.7,1.5c0,0.5,0.1,0.8,0.4,1.1c0.2,0.3,0.6,0.6,1.1,0.8c0.5,0.2,1.3,0.5,2.3,0.9
		c1.1,0.4,2,0.8,2.6,1.1c0.7,0.3,1.2,0.8,1.7,1.4c0.5,0.6,0.7,1.4,0.7,2.3c0,0.9-0.2,1.7-0.7,2.4c-0.5,0.7-1.1,1.2-2,1.6
		c-0.9,0.4-1.9,0.6-3.1,0.6C4.7,28.3,3.7,28.1,2.8,27.7z"/>
	<path d="M26.4,27.8l-0.7-2.4c0-0.1-0.1-0.1-0.2-0.1h-6.1c-0.1,0-0.1,0-0.2,0.1l-0.7,2.4c-0.1,0.2-0.2,0.3-0.4,0.3H16
		c-0.1,0-0.2,0-0.3-0.1c-0.1-0.1-0.1-0.2,0-0.3l5-15.5c0.1-0.2,0.2-0.3,0.4-0.3h2.7c0.2,0,0.4,0.1,0.4,0.3l5,15.5c0,0,0,0.1,0,0.1
		c0,0.2-0.1,0.3-0.3,0.3h-2.1C26.6,28.1,26.4,28,26.4,27.8z M20.1,23.2h4.7c0.1,0,0.1-0.1,0.1-0.2l-2.4-7.9c0-0.1,0-0.1-0.1-0.1
		c0,0-0.1,0-0.1,0.1L20,23C20,23.1,20,23.2,20.1,23.2z"/>
	<path d="M34,27.7V12.3c0-0.2,0.1-0.4,0.4-0.4h1.9c0.2,0,0.4,0.1,0.4,0.4v13.4c0,0.1,0,0.1,0.1,0.1h7.7c0.2,0,0.4,0.1,0.4,0.4v1.6
		c0,0.2-0.1,0.4-0.4,0.4H34.4C34.1,28.1,34,28,34,27.7z"/>
	<path d="M64.7,27.7V12.3c0-0.2,0.1-0.4,0.4-0.4H67c0.2,0,0.4,0.1,0.4,0.4v15.5c0,0.2-0.1,0.4-0.4,0.4h-1.9
		C64.8,28.1,64.7,28,64.7,27.7z"/>
	<path d="M84,12.3v1.6c0,0.2-0.1,0.4-0.4,0.4h-4.2c-0.1,0-0.1,0-0.1,0.1v13.4c0,0.2-0.1,0.4-0.4,0.4H77c-0.2,0-0.4-0.1-0.4-0.4V14.4
		c0-0.1,0-0.1-0.1-0.1h-4c-0.2,0-0.4-0.1-0.4-0.4v-1.6c0-0.2,0.1-0.4,0.4-0.4h11.1C83.9,11.9,84,12,84,12.3z"/>
	<path d="M97.1,27.8l-0.7-2.4c0-0.1-0.1-0.1-0.2-0.1h-6.1c-0.1,0-0.1,0-0.2,0.1l-0.7,2.4c-0.1,0.2-0.2,0.3-0.4,0.3h-2.1
		c-0.1,0-0.2,0-0.3-0.1c-0.1-0.1-0.1-0.2,0-0.3l5-15.5c0.1-0.2,0.2-0.3,0.4-0.3h2.7c0.2,0,0.4,0.1,0.4,0.3l5,15.5c0,0,0,0.1,0,0.1
		c0,0.2-0.1,0.3-0.3,0.3h-2.1C97.3,28.1,97.2,28,97.1,27.8z M90.9,23.2h4.7c0.1,0,0.1-0.1,0.1-0.2l-2.4-7.9c0-0.1,0-0.1-0.1-0.1
		c0,0-0.1,0-0.1,0.1L90.7,23C90.7,23.1,90.8,23.2,90.9,23.2z"/>
</g>
<g>
	<polygon class="st0" points="47.4,40 54.2,38.3 52.1,35.5 	"/>
	<polygon class="st1" points="54.2,38.3 57.4,34.2 52.1,35.5 	"/>
	<polygon class="st2" points="57.4,34.2 51.8,25.3 52.1,35.5 	"/>
	<polygon class="st1" points="51.8,25.3 57.4,34.2 58.7,28 	"/>
	<polygon class="st3" points="51.8,25.3 58.7,28 57.5,20.7 	"/>
	<polygon class="st1" points="47.2,19.9 51.8,25.3 57.5,20.7 	"/>
	<polygon class="st4" points="45.7,9.5 47.2,19.9 53.1,12.4 	"/>
	<polygon class="st5" points="54.5,5.8 45.7,9.5 53.1,12.4 	"/>
	<polygon class="st1" points="47.8,5.3 45.7,9.5 54.5,5.8 	"/>
	<polygon class="st5" points="51.1,2.1 47.8,5.3 54.5,5.8 	"/>
	<polygon class="st6" points="54.5,5.8 54.4,2.2 51.1,2.1 	"/>
	<polygon class="st7" points="54.5,5.8 60.3,0 54.4,2.2 	"/>
	<polygon class="st2" points="57.5,20.7 53.1,12.4 47.2,19.9 	"/>
</g>
</svg>
